HIERARCHY
ROOT Hips
{
	OFFSET 0.053599 88.859886 3.107447
	CHANNELS 6 Xposition Yposition Zposition Zrotation Yrotation Xrotation 
	JOINT Spine
	{
		OFFSET -0.000000 8.814246 -2.080107
		CHANNELS 3 Zrotation Yrotation Xrotation
		JOINT Spine1
		{
			OFFSET 0.000000 8.844141 0.000000
			CHANNELS 3 Zrotation Yrotation Xrotation
			JOINT Spine2
			{
				OFFSET -0.000000 11.682268 0.000000
				CHANNELS 3 Zrotation Yrotation Xrotation
				JOINT Spine3
				{
					OFFSET 0.000000 11.746700 0.000000
					CHANNELS 3 Zrotation Yrotation Xrotation
					JOINT Neck
					{
						OFFSET -0.000000 17.658264 -0.000000
						CHANNELS 3 Zrotation Yrotation Xrotation
						JOINT Neck1
						{
							OFFSET -0.000000 5.101515 -0.000000
							CHANNELS 3 Zrotation Yrotation Xrotation
							JOINT Head
							{
								OFFSET 0.000000 5.101515 0.000000
								CHANNELS 3 Zrotation Yrotation Xrotation
								JOINT HeadEnd
								{
									OFFSET 0.000000 11.655085 0.000000
									CHANNELS 3 Zrotation Yrotation Xrotation
									End Site
									{
										OFFSET 0.000000 0.000000 0.000000
									}
								}
							}
						}
					}
					JOINT RightShoulder
					{
						OFFSET -2.625389 11.175210 0.000000
						CHANNELS 3 Zrotation Yrotation Xrotation
						JOINT RightArm
						{
							OFFSET -0.000000 10.434715 -0.000000
							CHANNELS 3 Zrotation Yrotation Xrotation
							JOINT RightForeArm
							{
								OFFSET -0.000000 29.628420 0.000000
								CHANNELS 3 Zrotation Yrotation Xrotation
								JOINT RightHand
								{
									OFFSET -0.000000 22.857611 0.000000
									CHANNELS 3 Zrotation Yrotation Xrotation
									JOINT RightHandThumb1
									{
										OFFSET -2.867323 3.959563 2.944291
										CHANNELS 3 Zrotation Yrotation Xrotation
										JOINT RightHandThumb2
										{
											OFFSET 0.000000 3.350399 0.000000
											CHANNELS 3 Zrotation Yrotation Xrotation
											JOINT RightHandThumb3
											{
												OFFSET 0.000000 3.756509 -0.000000
												CHANNELS 3 Zrotation Yrotation Xrotation
												JOINT RightHandThumb4
												{
													OFFSET 0.000000 3.147345 0.000000
													CHANNELS 3 Zrotation Yrotation Xrotation
													End Site
													{
														OFFSET 0.000000 0.000000 0.000000
													}
												}
											}
										}
									}
									JOINT RightHandIndex1
									{
										OFFSET -0.086752 10.030893 2.345280
										CHANNELS 3 Zrotation Yrotation Xrotation
										JOINT RightHandIndex2
										{
											OFFSET -0.000000 4.061090 0.000000
											CHANNELS 3 Zrotation Yrotation Xrotation
											JOINT RightHandIndex3
											{
												OFFSET -0.000000 3.248873 0.000000
												CHANNELS 3 Zrotation Yrotation Xrotation
												JOINT RightHandIndex4
												{
													OFFSET 0.000000 2.639709 -0.000000
													CHANNELS 3 Zrotation Yrotation Xrotation
													End Site
													{
														OFFSET 0.000000 0.000000 0.000000
													}
												}
											}
										}
									}
									JOINT RightHandMiddle1
									{
										OFFSET 0.104102 9.502952 0.006768
										CHANNELS 3 Zrotation Yrotation Xrotation
										JOINT RightHandMiddle2
										{
											OFFSET 0.000000 4.568727 0.000000
											CHANNELS 3 Zrotation Yrotation Xrotation
											JOINT RightHandMiddle3
											{
												OFFSET 0.000000 3.654981 -0.000000
												CHANNELS 3 Zrotation Yrotation Xrotation
												JOINT RightHandMiddle4
												{
													OFFSET -0.000000 2.741236 -0.000000
													CHANNELS 3 Zrotation Yrotation Xrotation
													End Site
													{
														OFFSET 0.000000 0.000000 0.000000
													}
												}
											}
										}
									}
									JOINT RightHandRing1
									{
										OFFSET 0.086752 8.921708 -2.267442
										CHANNELS 3 Zrotation Yrotation Xrotation
										JOINT RightHandRing2
										{
											OFFSET -0.000000 4.061090 0.000000
											CHANNELS 3 Zrotation Yrotation Xrotation
											JOINT RightHandRing3
											{
												OFFSET 0.000000 3.654981 -0.000000
												CHANNELS 3 Zrotation Yrotation Xrotation
												JOINT RightHandRing4
												{
													OFFSET 0.000000 2.741236 -0.000000
													CHANNELS 3 Zrotation Yrotation Xrotation
													End Site
													{
														OFFSET 0.000000 0.000000 0.000000
													}
												}
											}
										}
									}
									JOINT RightHandPinky1
									{
										OFFSET -0.173504 7.976997 -4.467199
										CHANNELS 3 Zrotation Yrotation Xrotation
										JOINT RightHandPinky2
										{
											OFFSET 0.000000 3.350399 -0.000000
											CHANNELS 3 Zrotation Yrotation Xrotation
											JOINT RightHandPinky3
											{
												OFFSET -0.000000 2.842763 0.000000
												CHANNELS 3 Zrotation Yrotation Xrotation
												JOINT RightHandPinky4
												{
													OFFSET -0.000000 2.639709 0.000000
													CHANNELS 3 Zrotation Yrotation Xrotation
													End Site
													{
														OFFSET 0.000000 0.000000 0.000000
													}
												}
											}
										}
									}
									JOINT RightForeArmEnd
									{
										OFFSET 0.000000 0.000000 0.000000
										CHANNELS 3 Zrotation Yrotation Xrotation
										End Site
										{
											OFFSET 0.000000 0.000000 0.000000
										}
									}
								}
								JOINT RightArmEnd
								{
									OFFSET 0.000000 0.000000 0.000000
									CHANNELS 3 Zrotation Yrotation Xrotation
									End Site
									{
										OFFSET 0.000000 0.000000 0.000000
									}
								}
							}
						}
					}
					JOINT LeftShoulder
					{
						OFFSET 2.625389 11.175210 0.000000
						CHANNELS 3 Zrotation Yrotation Xrotation
						JOINT LeftArm
						{
							OFFSET 0.000000 10.813635 -0.000000
							CHANNELS 3 Zrotation Yrotation Xrotation
							JOINT LeftForeArm
							{
								OFFSET 0.000000 28.724781 0.000000
								CHANNELS 3 Zrotation Yrotation Xrotation
								JOINT LeftHand
								{
									OFFSET 0.644384 25.716167 -0.328871
									CHANNELS 3 Zrotation Yrotation Xrotation
									JOINT LeftHandThumb1
									{
										OFFSET 2.867323 3.959563 2.944291
										CHANNELS 3 Zrotation Yrotation Xrotation
										JOINT LeftHandThumb2
										{
											OFFSET 0.000000 3.350399 0.000000
											CHANNELS 3 Zrotation Yrotation Xrotation
											JOINT LeftHandThumb3
											{
												OFFSET -0.000000 3.756509 0.000000
												CHANNELS 3 Zrotation Yrotation Xrotation
												JOINT LeftHandThumb4
												{
													OFFSET -0.000000 3.100000 0.000000
													CHANNELS 3 Zrotation Yrotation Xrotation
													End Site
													{
														OFFSET 0.000000 0.000000 0.000000
													}
												}
											}
										}
									}
									JOINT LeftHandIndex1
									{
										OFFSET 0.086752 10.030893 2.345280
										CHANNELS 3 Zrotation Yrotation Xrotation
										JOINT LeftHandIndex2
										{
											OFFSET -0.000000 4.061090 -0.000000
											CHANNELS 3 Zrotation Yrotation Xrotation
											JOINT LeftHandIndex3
											{
												OFFSET 0.000000 3.248873 -0.000000
												CHANNELS 3 Zrotation Yrotation Xrotation
												JOINT LeftHandIndex4
												{
													OFFSET 0.000000 2.639709 -0.000000
													CHANNELS 3 Zrotation Yrotation Xrotation
													End Site
													{
														OFFSET 0.000000 0.000000 0.000000
													}
												}
											}
										}
									}
									JOINT LeftHandMiddle1
									{
										OFFSET -0.104102 9.502952 0.006768
										CHANNELS 3 Zrotation Yrotation Xrotation
										JOINT LeftHandMiddle2
										{
											OFFSET -0.000000 4.568727 -0.000000
											CHANNELS 3 Zrotation Yrotation Xrotation
											JOINT LeftHandMiddle3
											{
												OFFSET 0.000000 3.654981 0.000000
												CHANNELS 3 Zrotation Yrotation Xrotation
												JOINT LeftHandMiddle4
												{
													OFFSET 0.000000 2.741236 -0.000000
													CHANNELS 3 Zrotation Yrotation Xrotation
													End Site
													{
														OFFSET 0.000000 0.000000 0.000000
													}
												}
											}
										}
									}
									JOINT LeftHandRing1
									{
										OFFSET -0.086752 8.921708 -2.267442
										CHANNELS 3 Zrotation Yrotation Xrotation
										JOINT LeftHandRing2
										{
											OFFSET 0.000000 4.061090 0.000000
											CHANNELS 3 Zrotation Yrotation Xrotation
											JOINT LeftHandRing3
											{
												OFFSET 0.000000 3.654981 0.000000
												CHANNELS 3 Zrotation Yrotation Xrotation
												JOINT LeftHandRing4
												{
													OFFSET 0.000000 2.741236 0.000000
													CHANNELS 3 Zrotation Yrotation Xrotation
													End Site
													{
														OFFSET 0.000000 0.000000 0.000000
													}
												}
											}
										}
									}
									JOINT LeftHandPinky1
									{
										OFFSET 0.173504 7.976997 -4.467199
										CHANNELS 3 Zrotation Yrotation Xrotation
										JOINT LeftHandPinky2
										{
											OFFSET -0.000000 3.350399 -0.000000
											CHANNELS 3 Zrotation Yrotation Xrotation
											JOINT LeftHandPinky3
											{
												OFFSET 0.000000 2.842763 0.000000
												CHANNELS 3 Zrotation Yrotation Xrotation
												JOINT LeftHandPinky4
												{
													OFFSET -0.000000 2.639709 -0.000000
													CHANNELS 3 Zrotation Yrotation Xrotation
													End Site
													{
														OFFSET 0.000000 0.000000 0.000000
													}
												}
											}
										}
									}
									JOINT LeftForeArmEnd
									{
										OFFSET 0.000000 0.000000 0.000000
										CHANNELS 3 Zrotation Yrotation Xrotation
										End Site
										{
											OFFSET 0.000000 0.000000 0.000000
										}
									}
								}
								JOINT LeftArmEnd
								{
									OFFSET 0.000000 0.000000 0.000000
									CHANNELS 3 Zrotation Yrotation Xrotation
									End Site
									{
										OFFSET 0.000000 0.000000 0.000000
									}
								}
							}
						}
					}
				}
			}
		}
	}
	JOINT RightUpLeg
	{
		OFFSET -11.289943 0.000000 0.000000
		CHANNELS 3 Zrotation Yrotation Xrotation
		JOINT RightLeg
		{
			OFFSET 0.000000 -38.200325 0.000000
			CHANNELS 3 Zrotation Yrotation Xrotation
			JOINT RightFoot
			{
				OFFSET -0.000000 -39.900856 -0.000000
				CHANNELS 3 Zrotation Yrotation Xrotation
				JOINT RightToeBase
				{
					OFFSET 0.000000 0.000000 15.261641
					CHANNELS 3 Zrotation Yrotation Xrotation
					JOINT RightToeBaseEnd
					{
						OFFSET 0.000000 0.000000 7.370709
						CHANNELS 3 Zrotation Yrotation Xrotation
						End Site
						{
							OFFSET 0.000000 0.000000 0.000000
						}
					}
				}
				JOINT RightLegEnd
				{
					OFFSET 0.000000 0.000000 0.000000
					CHANNELS 3 Zrotation Yrotation Xrotation
					End Site
					{
						OFFSET 0.000000 0.000000 0.000000
					}
				}
			}
			JOINT RightUpLegEnd
			{
				OFFSET 0.000000 0.000000 0.000000
				CHANNELS 3 Zrotation Yrotation Xrotation
				End Site
				{
					OFFSET 0.000000 0.000000 0.000000
				}
			}
		}
	}
	JOINT LeftUpLeg
	{
		OFFSET 11.315661 -0.000000 0.000000
		CHANNELS 3 Zrotation Yrotation Xrotation
		JOINT LeftLeg
		{
			OFFSET -0.000000 -38.200325 -0.000000
			CHANNELS 3 Zrotation Yrotation Xrotation
			JOINT LeftFoot
			{
				OFFSET 0.000000 -39.900856 -0.000000
				CHANNELS 3 Zrotation Yrotation Xrotation
				JOINT LeftToeBase
				{
					OFFSET -0.000000 -0.000000 15.261641
					CHANNELS 3 Zrotation Yrotation Xrotation
					JOINT LeftToeBaseEnd
					{
						OFFSET 0.000000 -0.000000 7.539996
						CHANNELS 3 Zrotation Yrotation Xrotation
						End Site
						{
							OFFSET 0.000000 0.000000 0.000000
						}
					}
				}
				JOINT LeftLegEnd
				{
					OFFSET 0.000000 0.000000 0.000000
					CHANNELS 3 Zrotation Yrotation Xrotation
					End Site
					{
						OFFSET 0.000000 0.000000 0.000000
					}
				}
			}
			JOINT LeftUpLegEnd
			{
				OFFSET 0.000000 0.000000 0.000000
				CHANNELS 3 Zrotation Yrotation Xrotation
				End Site
				{
					OFFSET 0.000000 0.000000 0.000000
				}
			}
		}
	}
}
MOTION
Frames: 4
Frame Time: 0.016667
0.219573 88.665474 2.789375 -0.024422 -0.716654 -10.092081 0.998388 0.110788 6.968441 -1.024464 0.421095 3.122368 0.378019 -0.596879 3.954379 -1.150658 0.314462 4.874896 2.766815 -0.282415 6.465716 0.540161 0.742812 -2.468724 -0.177070 -0.771476 -20.662725 0.000000 0.000000 0.000000 92.913589 -0.062711 9.451889 67.513527 -24.078228 2.906051 0.284534 18.535286 28.025146 1.792556 10.610768 -6.649808 18.447563 30.570040 63.439968 -6.941456 -9.488058 -16.419231 -5.108706 -6.258427 -11.257931 0.000000 0.000000 0.000000 1.418208 -9.350707 5.689818 5.108530 0.536841 0.590698 4.839758 0.103786 0.623031 0.000000 0.000000 0.000000 1.339300 -3.733737 2.869047 3.831205 0.525094 0.201289 4.278698 0.024843 0.187982 0.000000 0.000000 0.000000 2.861645 4.081015 0.399333 4.050115 -1.009560 -0.376225 3.966826 -0.031900 -0.245628 0.000000 0.000000 0.000000 2.679209 12.462723 -2.826920 4.035486 -1.990807 -1.134808 3.896407 -0.019841 -0.907307 0.000000 0.000000 0.000000 0.000000 0.000000 0.000000 0.000000 0.000000 0.000000 -90.591255 0.063541 4.790855 -70.277840 14.789285 -6.369110 -0.238964 -12.389588 54.673199 9.745486 -7.085641 -12.966273 -16.508928 -31.246983 65.392029 4.762454 5.614106 -10.239639 3.336255 3.833893 -7.265522 0.000000 0.000000 0.000000 8.199558 -10.572213 12.939597 -1.083873 0.564623 -0.293586 -1.041459 0.103494 -0.347284 0.000000 0.000000 0.000000 7.541526 -5.034569 7.789922 -1.114994 0.519583 -0.158839 -1.326057 0.028501 -0.120458 0.000000 0.000000 0.000000 3.697864 3.778732 2.034167 -3.094764 -1.039137 0.351420 -3.127737 -0.042152 0.287959 0.000000 0.000000 0.000000 -1.004479 13.651706 -4.680894 -5.363250 -1.999282 1.410124 -4.934547 0.035340 1.282120 0.000000 0.000000 0.000000 0.000000 0.000000 0.000000 0.000000 0.000000 0.000000 -0.299196 -9.229052 13.694395 -0.074745 -0.683678 5.375026 -3.435259 -7.554974 17.453064 -0.721054 0.777426 -18.760885 0.000000 0.000000 0.000000 0.000000 0.000000 0.000000 0.000000 0.000000 0.000000 -1.372462 -6.054897 8.602314 0.059109 0.283562 10.183955 3.742561 -1.005421 16.934521 0.302490 -0.407916 -20.740845 0.000000 0.000000 0.000000 0.000000 0.000000 0.000000 0.000000 0.000000 0.000000 
0.210905 88.658813 2.790776 -0.020741 -0.674354 -10.120388 1.010268 0.114592 6.977258 -1.028928 0.425665 3.120229 0.364420 -0.549835 3.994350 -1.169541 0.330510 4.911667 2.805236 -0.312045 6.537448 0.537917 0.696485 -2.434530 -0.162311 -0.766804 -20.681351 0.000000 0.000000 0.000000 92.887787 -0.051874 9.445827 67.495880 -23.904282 2.867117 0.290491 18.627174 28.152712 1.881631 10.684630 -6.614848 18.466057 30.563019 63.424545 -6.962768 -9.521899 -16.472916 -5.124787 -6.279626 -11.292764 0.000000 0.000000 0.000000 1.587470 -9.377759 5.676857 5.187292 0.535771 0.595732 4.916009 0.102914 0.627331 0.000000 0.000000 0.000000 1.515610 -3.764842 2.856017 3.917085 0.524896 0.202321 4.369630 0.024611 0.188726 0.000000 0.000000 0.000000 3.068841 4.045044 0.378490 4.168003 -1.009125 -0.376712 4.087516 -0.031867 -0.245637 0.000000 0.000000 0.000000 2.886373 12.431625 -2.854906 4.173095 -1.988640 -1.139170 4.032528 -0.018484 -0.907949 0.000000 0.000000 0.000000 0.000000 0.000000 0.000000 0.000000 0.000000 0.000000 -90.579720 0.060272 4.747905 -70.255165 14.599590 -6.479286 -0.249157 -12.489195 55.054962 9.587739 -7.119397 -12.845761 -16.527920 -31.237984 65.366203 4.794209 5.656057 -10.310683 3.360334 3.862336 -7.315276 0.000000 0.000000 0.000000 7.933409 -10.523528 12.892160 -1.085683 0.565406 -0.284892 -1.043392 0.104188 -0.339379 0.000000 0.000000 0.000000 7.262322 -4.984496 7.736250 -1.129301 0.519701 -0.156829 -1.340236 0.028721 -0.118544 0.000000 0.000000 0.000000 3.350502 3.836200 1.963441 -3.160724 -1.039163 0.350877 -3.192611 -0.042032 0.287811 0.000000 0.000000 0.000000 -1.395871 13.710603 -4.779155 -5.476051 -1.997386 1.416295 -5.040298 0.037045 1.287816 0.000000 0.000000 0.000000 0.000000 0.000000 0.000000 0.000000 0.000000 0.000000 -0.296316 -9.264218 13.722518 -0.074361 -0.682454 5.385366 -3.439327 -7.566790 17.421677 -0.720546 0.777667 -18.751493 0.000000 0.000000 0.000000 0.000000 0.000000 0.000000 0.000000 0.000000 0.000000 -1.358636 -6.074075 8.615854 0.059559 0.286017 10.213917 3.729015 -1.089013 16.907646 0.299756 -0.409071 -20.740543 0.000000 0.000000 0.000000 0.000000 0.000000 0.000000 0.000000 0.000000 0.000000 
0.201801 88.652275 2.791798 -0.016524 -0.631864 -10.149412 1.019858 0.118219 6.986118 -1.031821 0.429910 3.121097 0.350130 -0.504720 4.034271 -1.187314 0.344461 4.947049 2.839837 -0.335150 6.605981 0.536786 0.656347 -2.400776 -0.149436 -0.762703 -20.697657 0.000000 0.000000 0.000000 92.867226 -0.041532 9.440955 67.478142 -23.754019 2.824775 0.295429 18.713461 28.277678 1.954808 10.720085 -6.571517 18.483641 30.556374 63.410019 -6.982740 -9.553784 -16.522940 -5.139951 -6.299701 -11.325986 0.000000 0.000000 0.000000 1.740327 -9.401184 5.660312 5.251266 0.535682 0.597547 4.978090 0.102974 0.629105 0.000000 0.000000 0.000000 1.675713 -3.792468 2.840172 3.989071 0.525050 0.202222 4.444783 0.024692 0.188568 0.000000 0.000000 0.000000 3.255511 4.012464 0.357129 4.271721 -1.009149 -0.376072 4.192913 -0.032143 -0.244763 0.000000 0.000000 0.000000 3.074588 12.403681 -2.881203 4.298168 -1.987708 -1.140018 4.155274 -0.018223 -0.905926 0.000000 0.000000 0.000000 0.000000 0.000000 0.000000 0.000000 0.000000 0.000000 -90.574539 0.057459 4.709682 -70.226044 14.421356 -6.576869 -0.258326 -12.587970 55.444622 9.454528 -7.123621 -12.700970 -16.547132 -31.229088 65.340622 4.825625 5.698731 -10.381636 3.384111 3.891097 -7.365603 0.000000 0.000000 0.000000 7.676148 -10.476466 12.846279 -1.091552 0.566944 -0.274277 -1.049154 0.105579 -0.329574 0.000000 0.000000 0.000000 6.993005 -4.935983 7.688412 -1.146767 0.520070 -0.153961 -1.358081 0.029176 -0.115980 0.000000 0.000000 0.000000 3.019574 3.891160 1.902731 -3.228104 -1.039582 0.348982 -3.258557 -0.042285 0.286822 0.000000 0.000000 0.000000 -1.766940 13.765815 -4.862979 -5.587115 -1.996620 1.418610 -5.146136 0.037686 1.290461 0.000000 0.000000 0.000000 0.000000 0.000000 0.000000 0.000000 0.000000 0.000000 -0.295329 -9.297504 13.753431 -0.074042 -0.681465 5.394263 -3.442982 -7.577921 17.390402 -0.720395 0.778350 -18.741714 0.000000 0.000000 0.000000 0.000000 0.000000 0.000000 0.000000 0.000000 0.000000 -1.344878 -6.094638 8.629293 0.060025 0.288251 10.245096 3.716419 -1.172022 16.881676 0.296922 -0.410113 -20.739552 0.000000 0.000000 0.000000 0.000000 0.000000 0.000000 0.000000 0.000000 0.000000 
0.192506 88.645729 2.792556 -0.011918 -0.589695 -10.177762 1.027417 0.121479 6.994455 -1.032365 0.433609 3.124532 0.334211 -0.461288 4.073719 -1.203258 0.356555 4.980095 2.869498 -0.351526 6.672405 0.536880 0.622902 -2.367586 -0.138512 -0.759583 -20.712223 0.000000 0.000000 0.000000 92.852547 -0.031854 9.437308 67.460693 -23.629972 2.781413 0.299091 18.794085 28.398249 2.016356 10.730618 -6.514469 18.500784 30.549938 63.395874 -7.002132 -9.584538 -16.570974 -5.154675 -6.319261 -11.358603 0.000000 0.000000 0.000000 1.884485 -9.422623 5.640460 5.305188 0.536213 0.597579 5.030612 0.103626 0.629638 0.000000 0.000000 0.000000 1.826598 -3.817982 2.822466 4.051791 0.525410 0.201538 4.508982 0.024966 0.187965 0.000000 0.000000 0.000000 3.430231 3.981666 0.336794 4.366283 -1.009448 -0.374852 4.287913 -0.032614 -0.243459 0.000000 0.000000 0.000000 3.252905 12.377053 -2.903974 4.415521 -1.987656 -1.138653 4.269511 -0.018738 -0.902417 0.000000 0.000000 0.000000 0.000000 0.000000 0.000000 0.000000 0.000000 0.000000 -90.576492 0.055299 4.675127 -70.192551 14.254719 -6.659491 -0.267107 -12.687261 55.834118 9.335991 -7.108116 -12.535721 -16.568550 -31.219557 65.313118 4.859288 5.745831 -10.458763 3.409443 3.922603 -7.420858 0.000000 0.000000 0.000000 7.411091 -10.428132 12.797309 -1.102070 0.568897 -0.263248 -1.059426 0.107339 -0.319262 0.000000 0.000000 0.000000 6.717123 -4.886274 7.643094 -1.167980 0.520556 -0.150790 -1.380127 0.029740 -0.113245 0.000000 0.000000 0.000000 2.687761 3.946501 1.851894 -3.297719 -1.040198 0.346520 -3.326290 -0.042756 0.285540 0.000000 0.000000 0.000000 -2.133287 13.820110 -4.929458 -5.697662 -1.996584 1.419077 -5.252917 0.037682 1.291687 0.000000 0.000000 0.000000 0.000000 0.000000 0.000000 0.000000 0.000000 0.000000 -0.296261 -9.329245 13.786473 -0.073773 -0.680616 5.400969 -3.446408 -7.587103 17.359240 -0.720352 0.779283 -18.731276 0.000000 0.000000 0.000000 0.000000 0.000000 0.000000 0.000000 0.000000 0.000000 -1.332313 -6.116219 8.641323 0.060483 0.290263 10.276468 3.704909 -1.251502 16.857237 0.294106 -0.411024 -20.738504 0.000000 0.000000 0.000000 0.000000 0.000000 0.000000 0.000000 0.000000 0.000000 
